<svg width="51" height="30" viewBox="0 0 51 30" fill="none" xmlns="http://www.w3.org/2000/svg">
<path d="M35.0764 21.3392C34.9775 21.0758 26.2082 3.75414 26.0764 3.4907C25.6148 2.37105 24.7907 1.41605 23.7028 0.757437C20.9665 -0.823244 17.472 0.0988199 15.8896 2.83208C14.8017 4.70914 14.8676 6.9155 15.9225 8.66084C16.0214 8.89136 24.3951 25.4885 24.5599 25.7519C24.6588 26.0154 24.7907 26.2459 24.9225 26.5094C25.3841 27.629 26.2082 28.584 27.2962 29.2426C30.0324 30.8233 33.5269 29.9342 35.1093 27.2009C36.2302 25.3238 36.1313 23.0846 35.0764 21.3392Z" fill="white" fill-opacity="0.4"/>
<path d="M24.956 9.61581C25.9121 8.59495 26.5055 7.21185 26.5055 5.69704C26.5055 2.56861 23.967 0 20.8022 0C18.8571 0 17.1429 0.954995 16.1209 2.43688C15.9231 2.63447 1.71429 20.1537 1.54945 20.3842C0.593406 21.4051 0 22.7881 0 24.303C0 27.4643 2.57143 30 5.7033 30C7.64835 30 9.36264 29.045 10.3846 27.5631C10.5824 27.3326 24.8242 9.84632 24.956 9.61581Z" fill="white"/>
<path d="M49.4499 9.61581C50.406 8.59495 50.9994 7.21185 50.9994 5.69704C50.9994 2.53567 48.428 0 45.2961 0C43.351 0 41.6368 0.954995 40.6148 2.43688C40.417 2.63447 26.1752 20.1537 26.0104 20.3842C25.0543 21.4051 24.4609 22.7881 24.4609 24.303C24.4609 27.4643 27.0324 30 30.1642 30C32.1093 30 33.8236 29.045 34.8456 27.5631C35.0763 27.3326 49.2851 9.84632 49.4499 9.61581Z" fill="white"/>
</svg>
